<svg data-logo="logo" xmlns="http://www.w3.org/2000/svg" viewBox="0 0 48 41">
                <g id="logogram" transform="translate(0, 0)"><path fill-rule="evenodd" clip-rule="evenodd" d="M25.7226 12.468C24.0781 11.3692 22.1447 10.7827 20.1669 10.7827V0.782715C24.1225 0.782715 27.9893 1.95569 31.2783 4.15332C34.5672 6.35095 37.1307 9.47452 38.6444 13.129C40.1582 16.7836 40.5543 20.8049 39.7826 24.6845C39.0109 28.5641 37.106 32.1278 34.309 34.9248C31.5119 37.7219 27.9483 39.6267 24.0687 40.3984C20.189 41.1701 16.1677 40.774 12.5132 39.2603C8.85868 37.7465 5.7351 35.1831 3.53748 31.8941C1.33985 28.6051 0.16687 24.7383 0.16687 20.7827H10.1669C10.1669 22.7605 10.7534 24.6939 11.8522 26.3384C12.951 27.9829 14.5128 29.2646 16.34 30.0215C18.1673 30.7784 20.178 30.9764 22.1178 30.5906C24.0576 30.2047 25.8394 29.2523 27.2379 27.8538C28.6365 26.4552 29.5889 24.6734 29.9747 22.7336C30.3606 20.7938 30.1625 18.7831 29.4057 16.9559C28.6488 15.1286 27.3671 13.5668 25.7226 12.468Z" fill="#0045DB"></path><path fill-rule="evenodd" clip-rule="evenodd" d="M10.1669 0.782746C10.1669 2.09596 9.90822 3.39632 9.40567 4.60958C8.90312 5.82284 8.16653 6.92523 7.23794 7.85381C6.30936 8.7824 5.20697 9.51899 3.99371 10.0215C2.78045 10.5241 1.48009 10.7827 0.166876 10.7827L0.16687 20.7827C2.79331 20.7827 5.39403 20.2654 7.82055 19.2603C10.2471 18.2552 12.4518 16.7821 14.309 14.9249C16.1662 13.0677 17.6394 10.8629 18.6445 8.43641C19.6496 6.0099 20.1669 3.40915 20.1669 0.782715L10.1669 0.782746Z" fill="#0045DB"></path></g>
                <g id="logotype" transform="translate(47, 20.5)"><path fill="#111111" d=""></path></g>
                
            </svg>